<svg xmlns="http://www.w3.org/2000/svg" viewBox="0 0 520 100" fill="none">
  <!-- Translation arrows -->
  <g transform="translate(14, 32)">
    <path d="M4 0C1.8 0 0 1.8 0 4v24c0 2.2 1.8 4 4 4h24c2.2 0 4-1.8 4-4V12L22 0H4z" fill="#61589B" opacity="0.15"/>
    <path d="M22 0v10c0 1.1.9 2 2 2h10L22 0z" fill="#61589B" opacity="0.08"/>
    <!-- Horizontal lines -->
    <line x1="5" y1="8" x2="17" y2="8" stroke="#61589B" stroke-width="1.2" stroke-linecap="round" opacity="0.4"/>
    <line x1="5" y1="14" x2="15" y2="14" stroke="#61589B" stroke-width="1" stroke-linecap="round" opacity="0.25"/>
    <line x1="5" y1="20" x2="16" y2="20" stroke="#61589B" stroke-width="1" stroke-linecap="round" opacity="0.25"/>
    <line x1="5" y1="26" x2="12" y2="26" stroke="#61589B" stroke-width="1" stroke-linecap="round" opacity="0.25"/>
    <!-- Translate arrows (bottom right) -->
    <circle cx="24" cy="26" r="6" fill="#61589B"/>
    <path d="M20.5 26l1.5-1.5 1.5 1.5M22 22.5V27" stroke="#fff" stroke-width="1.2" stroke-linecap="round" stroke-linejoin="round"/>
  </g>
  <!-- Second smaller doc -->
  <g transform="translate(42, 38)">
    <path d="M3 0C1.3 0 0 1.3 0 3v18c0 1.7 1.3 3 3 3h18c1.7 0 3-1.3 3-3V9L16 0H3z" fill="#61589B" opacity="0.08"/>
    <path d="M16 0v7.5c0 .8.7 1.5 1.5 1.5H24L16 0z" fill="#61589B" opacity="0.05"/>
    <line x1="4" y1="6" x2="13" y2="6" stroke="#61589B" stroke-width="0.8" stroke-linecap="round" opacity="0.3"/>
    <line x1="4" y1="10" x2="11" y2="10" stroke="#61589B" stroke-width="0.8" stroke-linecap="round" opacity="0.2"/>
    <line x1="4" y1="14" x2="12" y2="14" stroke="#61589B" stroke-width="0.8" stroke-linecap="round" opacity="0.2"/>
  </g>
  <!-- Text -->
  <text x="85" y="63" font-family="'Helvetica Neue', Arial, sans-serif" font-size="36" font-weight="800" fill="#61589B" letter-spacing="-1">TransBook</text>
</svg>
